<svg width="22" height="22" viewBox="0 0 22 22" fill="none" xmlns="http://www.w3.org/2000/svg">
<g id="alram_active" clip-path="url(#clip0_911_6809)">
<path id="Vector" d="M19.8699 15.4L18.6799 13.02C18.6709 12.9704 18.6709 12.9196 18.6799 12.87L18.0799 8.58002L17.8099 8.72002C17.6037 8.80761 17.3893 8.8746 17.1699 8.92001C17.0599 8.92001 16.9299 8.92001 16.8199 8.92001L17.3899 13.02C17.4113 13.2124 17.469 13.3991 17.5599 13.57L18.6799 15.82H3.38994L4.50994 13.57C4.5996 13.3985 4.65719 13.2122 4.67992 13.02L5.2899 8.68001C5.48013 7.29874 6.16243 6.0325 7.21141 5.11395C8.2604 4.1954 9.60563 3.68624 10.9999 3.68001C11.7845 3.68469 12.56 3.84795 13.2799 4.16C13.3779 3.9287 13.4985 3.70764 13.6399 3.50002C13.7558 3.34433 13.8828 3.19727 14.0199 3.06001C13.0827 2.61371 12.058 2.38143 11.0199 2.38C9.31461 2.38495 7.66817 3.00438 6.38249 4.12476C5.09682 5.24513 4.25806 6.79137 4.01995 8.48001L3.41991 12.82C3.42418 12.8699 3.42418 12.9201 3.41991 12.97L2.22991 15.35C2.13673 15.5346 2.09243 15.74 2.10118 15.9465C2.10994 16.1531 2.17144 16.354 2.27989 16.53C2.38545 16.7012 2.5324 16.8431 2.70714 16.9427C2.88188 17.0423 3.0788 17.0964 3.27989 17.1H18.7699C18.971 17.0964 19.168 17.0423 19.3427 16.9427C19.5174 16.8431 19.6644 16.7012 19.7699 16.53C19.8777 16.3642 19.9431 16.1745 19.9606 15.9775C19.978 15.7805 19.9469 15.5822 19.8699 15.4Z" fill="black"/>
<path id="Vector_2" d="M11.0002 18.9301C10.735 18.9301 10.4806 18.8247 10.2931 18.6372C10.1056 18.4496 10.0002 18.1953 10.0002 17.9301H8.7002C8.70019 18.5463 8.94429 19.1374 9.37909 19.5741C9.81389 20.0108 10.404 20.2574 11.0202 20.2601C11.3262 20.2601 11.6291 20.1998 11.9118 20.0827C12.1945 19.9656 12.4514 19.794 12.6677 19.5776C12.8841 19.3613 13.0557 19.1044 13.1728 18.8217C13.2899 18.539 13.3502 18.236 13.3502 17.9301H12.0502C12.0503 18.0657 12.0229 18.1999 11.9695 18.3246C11.9162 18.4493 11.838 18.5619 11.7398 18.6554C11.6416 18.749 11.5254 18.8216 11.3983 18.8688C11.2711 18.916 11.1357 18.9368 11.0002 18.9301Z" fill="black"/>
<path id="Vector_3" d="M16.42 3.12C15.8823 3.12266 15.3612 3.30578 14.94 3.64C14.5849 3.91044 14.3115 4.27384 14.15 4.69C14.0418 4.9675 13.9842 5.26216 13.98 5.56C13.9826 6.20539 14.2409 6.82344 14.6982 7.27887C15.1555 7.7343 15.7746 7.99 16.42 7.98999H16.55C16.998 7.97106 17.4314 7.82542 17.8 7.56999C18.1245 7.34716 18.3897 7.04854 18.5727 6.70003C18.7557 6.35151 18.8508 5.96362 18.85 5.56999C18.8513 5.24957 18.7895 4.93202 18.6681 4.63548C18.5467 4.33894 18.368 4.06922 18.1424 3.84172C17.9167 3.61422 17.6485 3.43339 17.353 3.30956C17.0574 3.18572 16.7404 3.12131 16.42 3.12Z" fill="#6746FF"/>
</g>
<defs>
<clipPath id="clip0_911_6809">
<rect width="22" height="22" fill="white"/>
</clipPath>
</defs>
</svg>
