<svg width="28" height="28" viewBox="0 0 28 28" fill="none" xmlns="http://www.w3.org/2000/svg">
<g id="Property 1=bottombar-home">
<path id="Exclude" fill-rule="evenodd" clip-rule="evenodd" d="M14.6139 6.47751C14.2528 6.19665 13.7472 6.19665 13.3861 6.47751L5.38606 12.6997C5.14247 12.8892 5 13.1805 5 13.4891V22C5 22.5523 5.44772 23 6 23H11C11.5523 23 12 22.5523 12 22V18C12 17.4477 12.4477 17 13 17H15C15.5523 17 16 17.4477 16 18V22C16 22.5523 16.4477 23 17 23H22C22.5523 23 23 22.5523 23 22V13.4891C23 13.1805 22.8575 12.8892 22.6139 12.6997L14.6139 6.47751Z" fill="#111111"/>
</g>
</svg>
