<svg width="28" height="28" viewBox="0 0 28 28" fill="none" xmlns="http://www.w3.org/2000/svg">
<g id="Property 1=bottombar-schedule">
<path id="Union" fill-rule="evenodd" clip-rule="evenodd" d="M7 7C7 6.44772 7.44772 6 8 6C8.55228 6 9 6.44772 9 7V8H19V7C19 6.44772 19.4477 6 20 6C20.5523 6 21 6.44772 21 7V8H22C22.5523 8 23 8.44772 23 9V22C23 22.5523 22.5523 23 22 23H6C5.44772 23 5 22.5523 5 22V9C5 8.44772 5.44772 8 6 8H7V7ZM21 20H16H12H7L10.0993 16.1259C10.6686 15.4143 11.5305 15 12.4419 15H15.125L16.1187 13.41C16.667 12.5329 17.6284 12 18.6627 12H21V20Z" fill="#111111"/>
</g>
</svg>
