<svg width="24" height="24" viewBox="0 0 24 24" fill="none" xmlns="http://www.w3.org/2000/svg">
<g id="Property 1=calendar">
<path id="Union" fill-rule="evenodd" clip-rule="evenodd" d="M7 2C6.44772 2 6 2.44772 6 3V4.30005H3.9998C3.06092 4.30005 2.2998 5.06116 2.2998 6.00005V19C2.2998 19.9389 3.06092 20.7 3.99981 20.7H19.9998C20.9387 20.7 21.6998 19.9389 21.6998 19V6.00005C21.6998 5.06116 20.9387 4.30005 19.9998 4.30005H18V3C18 2.44772 17.5523 2 17 2C16.4477 2 16 2.44772 16 3V4.30005H8V3C8 2.44772 7.55228 2 7 2ZM3.6998 10H20.2998V19C20.2998 19.1657 20.1655 19.3 19.9998 19.3H3.99981C3.83412 19.3 3.6998 19.1657 3.6998 19V10Z" fill="#111111"/>
</g>
</svg>
