<svg width="24" height="24" viewBox="0 0 24 24" fill="none" xmlns="http://www.w3.org/2000/svg">
<g id="Property 1=clock">
<path id="Exclude" fill-rule="evenodd" clip-rule="evenodd" d="M12 21C16.9706 21 21 16.9706 21 12C21 7.02944 16.9706 3 12 3C7.02944 3 3 7.02944 3 12C3 16.9706 7.02944 21 12 21ZM13 7.5C13 6.94772 12.5523 6.5 12 6.5C11.4477 6.5 11 6.94772 11 7.5V12.9V13.4146L11.4188 13.7137L14.5688 15.9637C15.0182 16.2847 15.6427 16.1807 15.9637 15.7312C16.2847 15.2818 16.1807 14.6573 15.7312 14.3363L13 12.3854V7.5Z" fill="#111111"/>
</g>
</svg>
