<svg width="20" height="20" viewBox="0 0 20 20" fill="none" xmlns="http://www.w3.org/2000/svg">
<g id="Property 1=comment" clip-path="url(#clip0_503_5616)">
<g id="Union">
<mask id="path-1-inside-1_503_5616" fill="white">
<path fill-rule="evenodd" clip-rule="evenodd" d="M3.81836 2.72729C2.71379 2.72729 1.81836 3.62273 1.81836 4.7273V13.4546C1.81836 14.5591 2.71379 15.4546 3.81836 15.4546H7.95472L9.68018 17.7552C9.84018 17.9685 10.1602 17.9685 10.3202 17.7552L12.0456 15.4546H16.182C17.2866 15.4546 18.182 14.5591 18.182 13.4546V4.72729C18.182 3.62273 17.2866 2.72729 16.182 2.72729H3.81836Z"/>
</mask>
<path d="M7.95472 15.4546L9.07472 14.6146C8.81033 14.262 8.39538 14.0546 7.95472 14.0546V15.4546ZM9.68018 17.7552L10.8002 16.9152L10.8002 16.9152L9.68018 17.7552ZM10.3202 17.7552L9.20018 16.9152L10.3202 17.7552ZM12.0456 15.4546V14.0546C11.605 14.0546 11.19 14.262 10.9256 14.6146L12.0456 15.4546ZM3.21836 4.7273C3.21836 4.39592 3.48699 4.12729 3.81836 4.12729V1.32729C1.94059 1.32729 0.418359 2.84953 0.418359 4.7273H3.21836ZM3.21836 13.4546V4.7273H0.418359V13.4546H3.21836ZM3.81836 14.0546C3.48699 14.0546 3.21836 13.7859 3.21836 13.4546H0.418359C0.418359 15.3323 1.94059 16.8546 3.81836 16.8546V14.0546ZM7.95472 14.0546H3.81836V16.8546H7.95472V14.0546ZM6.83472 16.2946L8.56018 18.5952L10.8002 16.9152L9.07472 14.6146L6.83472 16.2946ZM8.56018 18.5952C9.28018 19.5552 10.7202 19.5552 11.4402 18.5952L9.20018 16.9152C9.60018 16.3818 10.4002 16.3818 10.8002 16.9152L8.56018 18.5952ZM11.4402 18.5952L13.1656 16.2946L10.9256 14.6146L9.20018 16.9152L11.4402 18.5952ZM16.182 14.0546H12.0456V16.8546H16.182V14.0546ZM16.782 13.4546C16.782 13.7859 16.5134 14.0546 16.182 14.0546V16.8546C18.0598 16.8546 19.582 15.3323 19.582 13.4546H16.782ZM16.782 4.72729V13.4546H19.582V4.72729H16.782ZM16.182 4.12729C16.5134 4.12729 16.782 4.39592 16.782 4.72729H19.582C19.582 2.84953 18.0598 1.32729 16.182 1.32729V4.12729ZM3.81836 4.12729H16.182V1.32729H3.81836V4.12729Z" fill="#111111" mask="url(#path-1-inside-1_503_5616)"/>
</g>
</g>
<defs>
<clipPath id="clip0_503_5616">
<rect width="20" height="20" fill="white"/>
</clipPath>
</defs>
</svg>
