<svg width="24" height="24" viewBox="0 0 24 24" fill="none" xmlns="http://www.w3.org/2000/svg">
<g id="ic/add-s">
<path id="Vector 127" d="M2 6H22" stroke="black" stroke-width="1.4"/>
<path id="Vector 128" d="M2 18H22" stroke="black" stroke-width="1.4"/>
<path id="Vector 129" d="M2 12H22" stroke="black" stroke-width="1.4"/>
<path id="Ellipse 258" d="M16.9232 6C16.9232 6.5098 16.51 6.92308 16.0002 6.92308C15.4904 6.92308 15.0771 6.5098 15.0771 6C15.0771 5.4902 15.4904 5.07692 16.0002 5.07692C16.51 5.07692 16.9232 5.4902 16.9232 6Z" fill="black" stroke="black" stroke-width="2.15385"/>
<path id="Ellipse 259" d="M7.92324 12C7.92324 12.5098 7.50996 12.9231 7.00016 12.9231C6.49036 12.9231 6.07709 12.5098 6.07709 12C6.07709 11.4902 6.49036 11.0769 7.00016 11.0769C7.50996 11.0769 7.92324 11.4902 7.92324 12Z" fill="black" stroke="black" stroke-width="2.15385"/>
<path id="Ellipse 260" d="M16.9232 18C16.9232 18.5098 16.51 18.9231 16.0002 18.9231C15.4904 18.9231 15.0771 18.5098 15.0771 18C15.0771 17.4902 15.4904 17.0769 16.0002 17.0769C16.51 17.0769 16.9232 17.4902 16.9232 18Z" fill="black" stroke="black" stroke-width="2.15385"/>
</g>
</svg>
