<svg width="20" height="20" viewBox="0 0 20 20" fill="none" xmlns="http://www.w3.org/2000/svg">
<g id="Property 1=height" clip-path="url(#clip0_701_10992)">
<path id="Exclude" fill-rule="evenodd" clip-rule="evenodd" d="M4 14C4 9.83333 4.5 4.5 8.5 2C11.2319 0.292546 11.7187 1.86823 12.0881 3.06389C12.2119 3.46454 12.3225 3.82252 12.5 4C12.9999 4.49995 13.3561 4.67804 13.9998 4.99989L14 5C15 5.50002 17 9.50002 16 14V14.05C17.1411 14.2816 18 15.2905 18 16.5C18 17.8807 16.8807 19 15.5 19H4.5C3.11929 19 2 17.8807 2 16.5C2 15.2905 2.85888 14.2816 4 14.05V14ZM9.5 10.5V7H10.5V10.5H12.5V8H13.5V12H12.5V11.5H6.5V8H7.5V10.5H9.5Z" fill="#111111"/>
</g>
<defs>
<clipPath id="clip0_701_10992">
<rect width="20" height="20" fill="white"/>
</clipPath>
</defs>
</svg>
