<svg width="24" height="24" viewBox="0 0 24 24" fill="none" xmlns="http://www.w3.org/2000/svg">
<g id="Property 1=setting">
<path id="Exclude" d="M14.2999 3.51212V4.00714L14.7666 4.17211C15.7373 4.5152 16.6257 5.03409 17.3933 5.69102L17.7696 6.013L18.1985 5.76539L19.5102 5.00809C19.6537 4.92524 19.8371 4.97441 19.92 5.1179L21.92 8.582C22.0028 8.72548 21.9537 8.90896 21.8102 8.9918L20.4998 9.74834L20.0716 9.99555L20.1615 10.4817C20.2523 10.9735 20.2999 11.4809 20.2999 12C20.2999 12.5191 20.2523 13.0265 20.1615 13.5182L20.0717 14.0044L20.4998 14.2516L21.8102 15.0081C21.9537 15.0909 22.0028 15.2744 21.92 15.4179L19.92 18.882C19.8371 19.0255 19.6537 19.0746 19.5102 18.9918L18.1986 18.2345L17.7697 17.9869L17.3934 18.3089C16.6258 18.9659 15.7373 19.4848 14.7666 19.8279L14.2999 19.9929V20.4879V22C14.2999 22.1657 14.1656 22.3 13.9999 22.3H9.99988C9.83419 22.3 9.69988 22.1657 9.69988 22V20.4879V19.9929L9.23315 19.8279C8.26242 19.4848 7.37402 18.9659 6.60637 18.3089L6.23011 17.987L5.80123 18.2346L4.48966 18.9918C4.34617 19.0746 4.16269 19.0255 4.07985 18.882L2.07985 15.4179C1.99701 15.2744 2.04617 15.0909 2.18966 15.0081L1.83966 14.4019L2.18966 15.0081L3.49994 14.2516L3.92811 14.0044L3.83829 13.5182C3.74745 13.0265 3.69988 12.5191 3.69988 12C3.69988 11.4809 3.74746 10.9734 3.83831 10.4817L3.92813 9.99551L3.49996 9.74831L2.18966 8.9918C2.04617 8.90896 1.99701 8.72548 2.07985 8.582L4.07985 5.1179C4.16269 4.97441 4.34617 4.92525 4.48966 5.00809L5.80131 5.76537L6.23018 6.01298L6.60643 5.69099C7.37407 5.03408 8.26245 4.5152 9.23315 4.17211L9.69988 4.00714V3.51212V2C9.69988 1.83431 9.83419 1.7 9.99988 1.7H13.9999C14.1656 1.7 14.2999 1.83431 14.2999 2V3.51212ZM11.9999 14.7C13.491 14.7 14.6999 13.4912 14.6999 12C14.6999 10.5088 13.491 9.3 11.9999 9.3C10.5087 9.3 9.29988 10.5088 9.29988 12C9.29988 13.4912 10.5087 14.7 11.9999 14.7Z" stroke="#111111" stroke-width="1.4"/>
</g>
</svg>
