<svg width="24" height="24" viewBox="0 0 24 24" fill="none" xmlns="http://www.w3.org/2000/svg">
<g id="Property 1=share" clip-path="url(#clip0_303_4894)">
<path id="Vector 184" d="M8.5 7H3V21H21V13" stroke="#111111" stroke-width="1.4" stroke-linejoin="round"/>
<path id="Union" d="M17 13H16.3C16.3 13.2831 16.4706 13.5384 16.7321 13.6467C16.9937 13.7551 17.2948 13.6952 17.495 13.495L17 13ZM17 10.5H17.7C17.7 10.2255 17.5396 9.97632 17.2897 9.86273L17 10.5ZM22 8L22.495 8.49497C22.7683 8.22161 22.7683 7.77839 22.495 7.50503L22 8ZM17 3L17.495 2.50503C17.2948 2.30483 16.9937 2.24494 16.7321 2.35328C16.4706 2.46163 16.3 2.71688 16.3 3H17ZM17 5.49998L16.9589 6.19877C17.1514 6.21009 17.34 6.14154 17.4802 6.00928C17.6205 5.87702 17.7 5.69277 17.7 5.49998H17ZM9.50002 14L8.80386 14.0733C8.83942 14.411 9.11226 14.6745 9.45102 14.6983C9.78979 14.7221 10.0968 14.4992 10.1791 14.1698L9.50002 14ZM17.7 13V10.5H16.3V13H17.7ZM21.505 7.50503L16.505 12.505L17.495 13.495L22.495 8.49497L21.505 7.50503ZM16.505 3.49497L21.505 8.49497L22.495 7.50503L17.495 2.50503L16.505 3.49497ZM17.7 5.49998V3H16.3V5.49998H17.7ZM17.0411 4.80119C15.2409 4.6953 13.7738 4.99317 12.5962 5.58958C11.4168 6.18691 10.5675 7.06377 9.97465 8.05256C8.80275 10.0073 8.62791 12.4017 8.80386 14.0733L10.1962 13.9267C10.0388 12.4316 10.214 10.3761 11.1754 8.77244C11.6492 7.98206 12.3124 7.30266 13.2288 6.83853C14.147 6.37346 15.3591 6.10467 16.9589 6.19877L17.0411 4.80119ZM10.1791 14.1698C10.6072 12.4574 11.8037 11.5287 13.1479 11.1051C14.5314 10.6692 15.9752 10.8031 16.7103 11.1372L17.2897 9.86273C16.1914 9.36355 14.3853 9.24743 12.7271 9.76986C11.0297 10.3047 9.39282 11.5426 8.82092 13.8302L10.1791 14.1698Z" fill="#111111"/>
</g>
<defs>
<clipPath id="clip0_303_4894">
<rect width="24" height="24" fill="white"/>
</clipPath>
</defs>
</svg>
