<svg width="25" height="23" viewBox="0 0 25 23" fill="none" xmlns="http://www.w3.org/2000/svg">
<g id="Group 1085">
<path id="Vector 49" d="M13.1587 21L1 8.63636L8.51923 1C9.40385 4.04348 12.0577 5.72727 14.5891 5.72727C14.7083 8.0303 15.948 12.6364 19.9533 12.6364C23.9585 12.6364 24.2446 18.2121 23.887 21H13.1587Z" fill="#9975FF" stroke="#111111" stroke-width="1.4" stroke-linejoin="round"/>
<path id="Vector 56" d="M13 21L1.5 8.5L3 7L14 18.8125H24V21H13Z" fill="white"/>
<path id="Vector 51" d="M15 9L13 12" stroke="#111111" stroke-width="1.4"/>
<path id="Vector 52" d="M17 11L15 14" stroke="#111111" stroke-width="1.4"/>
<rect id="Rectangle 645" y="21" width="2" height="1.4" fill="#111111"/>
<rect id="Rectangle 646" y="17" width="5" height="1.4" fill="#111111"/>
<rect id="Rectangle 647" x="7" y="21" width="2" height="1.4" fill="#111111"/>
<path id="Vector 57" d="M13.1587 21L1 8.63636L8.51923 1C9.40384 4.04348 12.0577 5.72727 14.5891 5.72727C14.7083 8.0303 15.948 12.6364 19.9533 12.6364C23.9585 12.6364 24.2446 18.2121 23.887 21H13.1587Z" stroke="#111111" stroke-width="1.4" stroke-linejoin="round"/>
<path id="Vector 50" d="M23.5 19H13.8696L3 7" stroke="#111111" stroke-width="1.4"/>
</g>
</svg>
