<svg width="28" height="28" viewBox="0 0 28 28" fill="none" xmlns="http://www.w3.org/2000/svg">
<g id="Property 1=theme-nightseeing2">
<g id="Vector">
<path fill-rule="evenodd" clip-rule="evenodd" d="M7.61864 10.6326C3.93655 12.6765 2.60851 17.3183 4.65238 21.0004C6.69625 24.6825 11.3381 26.0105 15.0202 23.9667C15.8731 23.4932 16.5991 22.881 17.1862 22.174C14.5418 21.7532 12.1088 20.1643 10.7075 17.6399C9.30602 15.115 9.2446 12.2094 10.2865 9.74239C9.37571 9.86663 8.47191 10.159 7.61864 10.6326ZM3.42831 21.6799C1.00919 17.3217 2.58106 11.8277 6.93918 9.40856C8.37562 8.61122 9.9375 8.24704 11.4718 8.27428C11.7217 8.27871 11.9502 8.41599 12.0715 8.63447C12.1927 8.85296 12.1883 9.11951 12.0599 9.33387C10.7057 11.5947 10.5621 14.4933 11.9316 16.9604C13.3009 19.4272 15.8364 20.8385 18.471 20.8852C18.7208 20.8897 18.9494 21.0269 19.0706 21.2454C19.1919 21.4639 19.1875 21.7305 19.0591 21.9448C18.2707 23.261 17.1357 24.3936 15.6996 25.1907C11.3415 27.6099 5.84744 26.038 3.42831 21.6799Z" fill="#111111"/>
<path fill-rule="evenodd" clip-rule="evenodd" d="M22.9999 13.3C23.2223 13.3 23.4314 13.4057 23.5634 13.5848L23.9376 14.0926C24.4916 14.8443 25.1556 15.5084 25.9073 16.0623L26.4151 16.4365C26.5942 16.5685 26.6999 16.7776 26.6999 17C26.6999 17.2225 26.5942 17.4316 26.4151 17.5636L25.9073 17.9378C25.1556 18.4917 24.4916 19.1558 23.9376 19.9075L23.5634 20.4153C23.4314 20.5944 23.2223 20.7 22.9999 20.7C22.7775 20.7 22.5683 20.5944 22.4363 20.4153L22.0621 19.9075C21.5082 19.1558 20.8441 18.4917 20.0924 17.9378L19.5846 17.5636C19.4056 17.4316 19.2999 17.2225 19.2999 17C19.2999 16.7776 19.4056 16.5685 19.5846 16.4365L20.0924 16.0623C20.8441 15.5084 21.5082 14.8443 22.0621 14.0926L22.4363 13.5848C22.5683 13.4057 22.7775 13.3 22.9999 13.3ZM22.9999 15.1723C22.4667 15.8532 21.853 16.4669 21.1721 17C21.853 17.5332 22.4667 18.1469 22.9999 18.8278C23.533 18.1469 24.1467 17.5332 24.8276 17C24.1467 16.4669 23.533 15.8532 22.9999 15.1723Z" fill="#111111"/>
<path fill-rule="evenodd" clip-rule="evenodd" d="M16.9999 2.30005C17.2223 2.30005 17.4314 2.40574 17.5634 2.58479L17.9376 3.0926C18.4916 3.84434 19.1556 4.50835 19.9073 5.06232L20.4151 5.43653C20.5942 5.56847 20.6999 5.77764 20.6999 6.00005C20.6999 6.22246 20.5942 6.43163 20.4151 6.56357L19.9073 6.93778C19.1556 7.49174 18.4916 8.15576 17.9376 8.9075L17.5634 9.41531C17.4314 9.59436 17.2223 9.70005 16.9999 9.70005C16.7775 9.70005 16.5683 9.59436 16.4363 9.41531L16.0621 8.9075C15.5082 8.15576 14.8441 7.49174 14.0924 6.93778L13.5846 6.56357C13.4056 6.43163 13.2999 6.22246 13.2999 6.00005C13.2999 5.77764 13.4056 5.56847 13.5846 5.43653L14.0924 5.06232C14.8441 4.50835 15.5082 3.84434 16.0621 3.0926L16.4363 2.58479C16.5683 2.40574 16.7775 2.30005 16.9999 2.30005ZM16.9999 4.17231C16.4667 4.85317 15.853 5.4669 15.1721 6.00005C15.853 6.5332 16.4667 7.14692 16.9999 7.82779C17.533 7.14692 18.1467 6.5332 18.8276 6.00005C18.1467 5.4669 17.533 4.85317 16.9999 4.17231Z" fill="#111111"/>
<path d="M6.99986 4.00005C6.99986 4.55233 6.55214 5.00005 5.99986 5.00005C5.44758 5.00005 4.99986 4.55233 4.99986 4.00005C4.99986 3.44776 5.44758 3.00005 5.99986 3.00005C6.55214 3.00005 6.99986 3.44776 6.99986 4.00005Z" fill="#111111"/>
<path d="M25.9999 8.00005C25.9999 8.55233 25.5521 9.00005 24.9999 9.00005C24.4476 9.00005 23.9999 8.55233 23.9999 8.00005C23.9999 7.44776 24.4476 7.00005 24.9999 7.00005C25.5521 7.00005 25.9999 7.44776 25.9999 8.00005Z" fill="#111111"/>
<path d="M15.9999 14C15.9999 14.5523 15.5521 15 14.9999 15C14.4476 15 13.9999 14.5523 13.9999 14C13.9999 13.4478 14.4476 13 14.9999 13C15.5521 13 15.9999 13.4478 15.9999 14Z" fill="#111111"/>
</g>
</g>
</svg>
