<svg width="26" height="27" viewBox="0 0 26 27" fill="none" xmlns="http://www.w3.org/2000/svg">
<g id="Group 1083">
<g id="Union">
<path fill-rule="evenodd" clip-rule="evenodd" d="M3.6 10.2C4.37655 10.2 5.07359 9.85956 5.55 9.31978C6.02641 9.85956 6.72345 10.2 7.5 10.2C8.27655 10.2 8.97359 9.85956 9.45 9.31978C9.92641 9.85956 10.6234 10.2 11.4 10.2C12.8359 10.2 14 9.03594 14 7.6C14 6.16406 12.8359 5 11.4 5C10.6234 5 9.92641 5.34044 9.45 5.88021C8.97359 5.34044 8.27655 5 7.5 5C6.72345 5 6.02641 5.34044 5.55 5.88022C5.07359 5.34044 4.37655 5 3.6 5C2.16406 5 1 6.16406 1 7.6C1 9.03594 2.16406 10.2 3.6 10.2Z" fill="white"/>
<path d="M5.55 9.31978L6.07482 8.85657C5.94194 8.70602 5.7508 8.61978 5.55 8.61978C5.3492 8.61978 5.15806 8.70602 5.02518 8.85657L5.55 9.31978ZM9.45 9.31978L9.97482 8.85657C9.84194 8.70602 9.65081 8.61978 9.45 8.61978C9.2492 8.61978 9.05806 8.70602 8.92518 8.85657L9.45 9.31978ZM9.45 5.88021L8.92518 6.34343C9.05806 6.49398 9.2492 6.58021 9.45 6.58021C9.65081 6.58021 9.84194 6.49398 9.97482 6.34343L9.45 5.88021ZM5.55 5.88022L5.02518 6.34343C5.15806 6.49398 5.3492 6.58022 5.55 6.58022C5.7508 6.58022 5.94194 6.49398 6.07482 6.34343L5.55 5.88022ZM5.02518 8.85657C4.67601 9.25218 4.16738 9.5 3.6 9.5V10.9C4.58572 10.9 5.47116 10.4669 6.07482 9.783L5.02518 8.85657ZM7.5 9.5C6.93262 9.5 6.42399 9.25218 6.07482 8.85657L5.02518 9.783C5.62884 10.4669 6.51428 10.9 7.5 10.9V9.5ZM8.92518 8.85657C8.57601 9.25218 8.06738 9.5 7.5 9.5V10.9C8.48572 10.9 9.37116 10.4669 9.97482 9.783L8.92518 8.85657ZM11.4 9.5C10.8326 9.5 10.324 9.25218 9.97482 8.85657L8.92518 9.783C9.52884 10.4669 10.4143 10.9 11.4 10.9V9.5ZM13.3 7.6C13.3 8.64934 12.4493 9.5 11.4 9.5V10.9C13.2225 10.9 14.7 9.42254 14.7 7.6H13.3ZM11.4 5.7C12.4493 5.7 13.3 6.55066 13.3 7.6H14.7C14.7 5.77746 13.2225 4.3 11.4 4.3V5.7ZM9.97482 6.34343C10.324 5.94782 10.8326 5.7 11.4 5.7V4.3C10.4143 4.3 9.52884 4.73307 8.92518 5.417L9.97482 6.34343ZM7.5 5.7C8.06738 5.7 8.57601 5.94782 8.92518 6.34343L9.97482 5.417C9.37116 4.73306 8.48572 4.3 7.5 4.3V5.7ZM6.07482 6.34343C6.42399 5.94782 6.93262 5.7 7.5 5.7V4.3C6.51428 4.3 5.62884 4.73307 5.02518 5.417L6.07482 6.34343ZM3.6 5.7C4.16738 5.7 4.67601 5.94782 5.02518 6.34343L6.07482 5.417C5.47116 4.73306 4.58572 4.3 3.6 4.3V5.7ZM1.7 7.6C1.7 6.55066 2.55066 5.7 3.6 5.7V4.3C1.77746 4.3 0.3 5.77746 0.3 7.6H1.7ZM3.6 9.5C2.55066 9.5 1.7 8.64934 1.7 7.6H0.3C0.3 9.42254 1.77746 10.9 3.6 10.9V9.5Z" fill="#111111"/>
</g>
<path id="Vector 45" d="M23 26H2L4.73913 20.3333L12.0435 13.3333L19.3478 12L23 21.6667V26Z" fill="#64FF99" stroke="#111111" stroke-width="1.4" stroke-linejoin="round"/>
<g id="Union_2">
<path fill-rule="evenodd" clip-rule="evenodd" d="M14.6 22.2C15.3766 22.2 16.0736 21.8596 16.55 21.3198C17.0264 21.8596 17.7234 22.2 18.5 22.2C19.2766 22.2 19.9736 21.8596 20.45 21.3198C20.9264 21.8596 21.6234 22.2 22.4 22.2C23.8359 22.2 25 21.0359 25 19.6C25 18.1641 23.8359 17 22.4 17C21.6234 17 20.9264 17.3404 20.45 17.8802C19.9736 17.3404 19.2766 17 18.5 17C17.7234 17 17.0264 17.3404 16.55 17.8802C16.0736 17.3404 15.3766 17 14.6 17C13.1641 17 12 18.1641 12 19.6C12 21.0359 13.1641 22.2 14.6 22.2Z" fill="white"/>
<path d="M16.55 21.3198L17.0748 20.8566C16.9419 20.706 16.7508 20.6198 16.55 20.6198C16.3492 20.6198 16.1581 20.706 16.0252 20.8566L16.55 21.3198ZM20.45 21.3198L20.9748 20.8566C20.8419 20.706 20.6508 20.6198 20.45 20.6198C20.2492 20.6198 20.0581 20.706 19.9252 20.8566L20.45 21.3198ZM20.45 17.8802L19.9252 18.3434C20.0581 18.494 20.2492 18.5802 20.45 18.5802C20.6508 18.5802 20.8419 18.494 20.9748 18.3434L20.45 17.8802ZM16.55 17.8802L16.0252 18.3434C16.1581 18.494 16.3492 18.5802 16.55 18.5802C16.7508 18.5802 16.9419 18.494 17.0748 18.3434L16.55 17.8802ZM16.0252 20.8566C15.676 21.2522 15.1674 21.5 14.6 21.5V22.9C15.5857 22.9 16.4712 22.4669 17.0748 21.783L16.0252 20.8566ZM18.5 21.5C17.9326 21.5 17.424 21.2522 17.0748 20.8566L16.0252 21.783C16.6288 22.4669 17.5143 22.9 18.5 22.9V21.5ZM19.9252 20.8566C19.576 21.2522 19.0674 21.5 18.5 21.5V22.9C19.4857 22.9 20.3712 22.4669 20.9748 21.783L19.9252 20.8566ZM22.4 21.5C21.8326 21.5 21.324 21.2522 20.9748 20.8566L19.9252 21.783C20.5288 22.4669 21.4143 22.9 22.4 22.9V21.5ZM24.3 19.6C24.3 20.6493 23.4493 21.5 22.4 21.5V22.9C24.2225 22.9 25.7 21.4225 25.7 19.6H24.3ZM22.4 17.7C23.4493 17.7 24.3 18.5507 24.3 19.6H25.7C25.7 17.7775 24.2225 16.3 22.4 16.3V17.7ZM20.9748 18.3434C21.324 17.9478 21.8326 17.7 22.4 17.7V16.3C21.4143 16.3 20.5288 16.7331 19.9252 17.417L20.9748 18.3434ZM18.5 17.7C19.0674 17.7 19.576 17.9478 19.9252 18.3434L20.9748 17.417C20.3712 16.7331 19.4857 16.3 18.5 16.3V17.7ZM17.0748 18.3434C17.424 17.9478 17.9326 17.7 18.5 17.7V16.3C17.5143 16.3 16.6288 16.7331 16.0252 17.417L17.0748 18.3434ZM14.6 17.7C15.1674 17.7 15.676 17.9478 16.0252 18.3434L17.0748 17.417C16.4712 16.7331 15.5857 16.3 14.6 16.3V17.7ZM12.7 19.6C12.7 18.5507 13.5507 17.7 14.6 17.7V16.3C12.7775 16.3 11.3 17.7775 11.3 19.6H12.7ZM14.6 21.5C13.5507 21.5 12.7 20.6493 12.7 19.6H11.3C11.3 21.4225 12.7775 22.9 14.6 22.9V21.5Z" fill="#111111"/>
</g>
<path id="Vector 46" d="M8 26L10 20" stroke="#111111"/>
<g id="Group 368">
<path id="Polygon 11" d="M24 5L18 8.4641L18 1.5359L24 5Z" fill="#897EFF" stroke="#111111" stroke-width="1.4" stroke-linejoin="round"/>
<path id="Vector 53" d="M18 4.5V12" stroke="#111111" stroke-width="1.4" stroke-linejoin="round"/>
</g>
</g>
</svg>
