<svg width="27" height="26" viewBox="0 0 27 26" fill="none" xmlns="http://www.w3.org/2000/svg">
<g id="Group 1079">
<g id="Group 352">
<g id="Subtract">
<path fill-rule="evenodd" clip-rule="evenodd" d="M11.4595 6.97412C9.98219 9.44048 9.82403 12.6056 11.3197 15.3001C12.8152 17.9942 15.5845 19.5341 18.4587 19.5851C17.7319 20.7985 16.6857 21.8428 15.36 22.5786C11.3399 24.8101 6.27199 23.3602 4.04049 19.3401C1.80899 15.32 3.25894 10.252 7.27905 8.02055C8.60502 7.28453 10.045 6.94901 11.4595 6.97412Z" fill="#FFE664"/>
<path d="M11.4595 6.97412L12.0601 7.33383C12.1885 7.11947 12.1929 6.85291 12.0716 6.63443C11.9503 6.41594 11.7218 6.27867 11.472 6.27423L11.4595 6.97412ZM18.4587 19.5851L19.0592 19.9448C19.1876 19.7304 19.192 19.4639 19.0708 19.2454C18.9495 19.0269 18.721 18.8896 18.4711 18.8852L18.4587 19.5851ZM11.9317 14.9604C10.5622 12.4932 10.7058 9.59462 12.0601 7.33383L10.859 6.61441C9.25855 9.28633 9.08581 12.718 10.7076 15.6398L11.9317 14.9604ZM18.4711 18.8852C15.8365 18.8384 13.301 17.4272 11.9317 14.9604L10.7076 15.6398C12.3293 18.5613 15.3326 20.2297 18.4463 20.285L18.4711 18.8852ZM17.8582 19.2254C17.1929 20.3361 16.2355 21.2921 15.0203 21.9666L15.6998 23.1907C17.1359 22.3935 18.2708 21.261 19.0592 19.9448L17.8582 19.2254ZM15.0203 21.9666C11.3382 24.0105 6.69639 22.6824 4.65252 19.0004L3.42845 19.6798C5.84758 24.0379 11.3416 25.6098 15.6998 23.1907L15.0203 21.9666ZM4.65252 19.0004C2.60865 15.3183 3.93669 10.6765 7.61878 8.63258L6.93932 7.40852C2.5812 9.82764 1.00933 15.3217 3.42845 19.6798L4.65252 19.0004ZM7.61878 8.63258C8.83427 7.95788 10.1523 7.65102 11.4471 7.67401L11.472 6.27423C9.93764 6.24699 8.37576 6.61117 6.93932 7.40852L7.61878 8.63258Z" fill="#111111"/>
</g>
</g>
<path id="Star 11" d="M23 12L23.3742 12.5078C23.9699 13.3161 24.6839 14.0301 25.4922 14.6258L26 15L25.4922 15.3742C24.6839 15.9699 23.9699 16.6839 23.3742 17.4922L23 18L22.6258 17.4922C22.0301 16.6839 21.3161 15.9699 20.5078 15.3742L20 15L20.5078 14.6258C21.3161 14.0301 22.0301 13.3161 22.6258 12.5078L23 12Z" fill="#91EBFF" stroke="#111111" stroke-width="1.4" stroke-linecap="round" stroke-linejoin="round"/>
<path id="Star 12" d="M17 1L17.3742 1.50781C17.9699 2.31613 18.6839 3.03013 19.4922 3.62579L20 4L19.4922 4.37421C18.6839 4.96987 17.9699 5.68387 17.3742 6.49219L17 7L16.6258 6.49219C16.0301 5.68387 15.3161 4.96987 14.5078 4.37421L14 4L14.5078 3.62579C15.3161 3.03013 16.0301 2.31613 16.6258 1.50781L17 1Z" fill="#91EBFF" stroke="#111111" stroke-width="1.4" stroke-linecap="round" stroke-linejoin="round"/>
<circle id="Ellipse 209" cx="6" cy="2" r="1" fill="#111111"/>
<circle id="Ellipse 210" cx="25" cy="6" r="1" fill="#111111"/>
<circle id="Ellipse 211" cx="15" cy="12" r="1" fill="#111111"/>
</g>
</svg>
