<svg width="26" height="26" viewBox="0 0 26 26" fill="none" xmlns="http://www.w3.org/2000/svg">
<g id="Group 1094">
<path id="Polygon 13" d="M13 7L23.3923 23.5H2.6077L13 7Z" fill="white"/>
<path id="Polygon 12" d="M13 17L17.7631 23.75H8.23686L13 17Z" fill="white" stroke="#111111" stroke-width="1.4" stroke-linejoin="round"/>
<path id="Vector 66" d="M0 24H26" stroke="#111111" stroke-width="1.4"/>
<path id="Vector 64" d="M2 24L15 3" stroke="#111111" stroke-width="1.4"/>
<path id="Vector 65" d="M24 24L11 3" stroke="#111111" stroke-width="1.4"/>
<path id="Vector 67" d="M13 17V23.5" stroke="#111111"/>
<g id="Group 352">
<g id="Subtract">
<path fill-rule="evenodd" clip-rule="evenodd" d="M5.00206 1.42524C4.35718 2.50179 4.28813 3.88338 4.94098 5.0595C5.59372 6.23545 6.8025 6.90756 8.05702 6.92986C7.73975 7.45949 7.28312 7.91529 6.7045 8.23647C4.94976 9.2105 2.73766 8.5776 1.76363 6.82287C0.789606 5.06813 1.4225 2.85602 3.17724 1.882C3.75603 1.56072 4.38459 1.41427 5.00206 1.42524Z" fill="white"/>
<path d="M5.00206 1.42524L5.60256 1.78496C5.73097 1.5706 5.73538 1.30405 5.61412 1.08556C5.49287 0.867075 5.26434 0.729793 5.0145 0.725352L5.00206 1.42524ZM8.05702 6.92986L8.65752 7.28958C8.78593 7.07522 8.79033 6.80866 8.66908 6.59018C8.54782 6.37169 8.3193 6.23441 8.06946 6.22997L8.05702 6.92986ZM5.55301 4.71977C5.02635 3.77098 5.08082 2.65594 5.60256 1.78496L4.40156 1.06552C3.63354 2.34764 3.54991 3.99578 4.32894 5.39923L5.55301 4.71977ZM8.06946 6.22997C7.05448 6.21193 6.07959 5.66842 5.55301 4.71977L4.32894 5.39923C5.10786 6.80247 6.55051 7.60319 8.04458 7.62975L8.06946 6.22997ZM7.45652 6.57014C7.20079 6.99704 6.83295 7.36456 6.36477 7.62443L7.04423 8.8485C7.73329 8.46601 8.27872 7.92194 8.65752 7.28958L7.45652 6.57014ZM6.36477 7.62443C4.94805 8.41084 3.16207 7.89986 2.37567 6.48314L1.1516 7.16259C2.31326 9.25535 4.95148 10.0102 7.04423 8.8485L6.36477 7.62443ZM2.37567 6.48314C1.58927 5.06641 2.10024 3.28043 3.51697 2.49403L2.83751 1.26996C0.744751 2.43162 -0.0100543 5.06984 1.1516 7.16259L2.37567 6.48314ZM3.51697 2.49403C3.98528 2.23407 4.49192 2.11628 4.98962 2.12513L5.0145 0.725352C4.27726 0.712249 3.52678 0.887359 2.83751 1.26996L3.51697 2.49403Z" fill="#111111"/>
</g>
</g>
<circle id="Ellipse 211" cx="23" cy="9" r="1" fill="#111111"/>
<circle id="Ellipse 212" cx="20" cy="2" r="1" fill="#111111"/>
<circle id="Ellipse 213" cx="2" cy="14" r="1" fill="#111111"/>
</g>
</svg>
