<svg width="27" height="26" viewBox="0 0 27 26" fill="none" xmlns="http://www.w3.org/2000/svg">
<g id="Group 1091">
<g id="Union">
<path fill-rule="evenodd" clip-rule="evenodd" d="M22.0611 11.0305C21.5032 10.4726 21.5032 9.56804 22.0611 9.01015C22.619 8.45226 23.5235 8.45226 24.0814 9.01015C24.3831 9.31186 24.5217 9.71494 24.4971 10.1097C24.8919 10.0851 25.295 10.2237 25.5967 10.5254C26.1546 11.0833 26.1546 11.9878 25.5967 12.5457C25.0388 13.1036 24.1343 13.1036 23.5764 12.5457L18.5256 17.5964L17.0104 16.0812L22.0611 11.0305Z" fill="white"/>
<path d="M22.0611 11.0305L22.5561 11.5254C22.8295 11.2521 22.8295 10.8088 22.5561 10.5355L22.0611 11.0305ZM24.4971 10.1097L23.7984 10.0662C23.7859 10.2666 23.8601 10.4627 24.0021 10.6047C24.1441 10.7467 24.3402 10.8209 24.5406 10.8084L24.4971 10.1097ZM23.5764 12.5457L24.0713 12.0507C23.798 11.7773 23.3548 11.7773 23.0814 12.0507L23.5764 12.5457ZM18.5256 17.5964L18.0306 18.0914C18.304 18.3648 18.7472 18.3648 19.0206 18.0914L18.5256 17.5964ZM17.0104 16.0812L16.5154 15.5862C16.242 15.8596 16.242 16.3028 16.5154 16.5762L17.0104 16.0812ZM22.5561 10.5355C22.2716 10.251 22.2716 9.78965 22.5561 9.50513L21.5662 8.51518C20.7349 9.34644 20.7349 10.6942 21.5662 11.5254L22.5561 10.5355ZM22.5561 9.50513C22.8406 9.2206 23.3019 9.2206 23.5865 9.50513L24.5764 8.51518C23.7452 7.68392 22.3974 7.68392 21.5662 8.51518L22.5561 9.50513ZM23.5865 9.50513C23.7403 9.65893 23.8111 9.86329 23.7984 10.0662L25.1957 10.1533C25.2323 9.56659 25.026 8.96479 24.5764 8.51518L23.5865 9.50513ZM24.5406 10.8084C24.7435 10.7957 24.9479 10.8666 25.1017 11.0204L26.0916 10.0304C25.642 9.5808 25.0402 9.37452 24.4535 9.4111L24.5406 10.8084ZM25.1017 11.0204C25.3862 11.3049 25.3862 11.7662 25.1017 12.0507L26.0916 13.0407C26.9229 12.2094 26.9229 10.8617 26.0916 10.0304L25.1017 11.0204ZM25.1017 12.0507C24.8172 12.3352 24.3559 12.3352 24.0713 12.0507L23.0814 13.0407C23.9126 13.8719 25.2604 13.8719 26.0916 13.0407L25.1017 12.0507ZM23.0814 12.0507L18.0306 17.1015L19.0206 18.0914L24.0713 13.0407L23.0814 12.0507ZM19.0206 17.1015L17.5053 15.5862L16.5154 16.5762L18.0306 18.0914L19.0206 17.1015ZM17.5053 16.5762L22.5561 11.5254L21.5662 10.5355L16.5154 15.5862L17.5053 16.5762Z" fill="#111111"/>
</g>
<path id="Ellipse 226" d="M22 18.2832C22 23.2538 17.7467 23 12.5 23C7.25329 23 3 23.2538 3 18.2832C3 13.3126 7.25329 9.2832 12.5 9.2832C17.7467 9.2832 22 13.3126 22 18.2832Z" fill="#FFAE64" stroke="#111111" stroke-width="1.4"/>
<path id="Rectangle 648" d="M13.7031 13.3636C15.6639 11.5059 18.7593 11.5895 20.617 13.5503C22.51 15.5484 22.3819 18.7145 20.3337 20.5532L20.1393 20.7277C19.1952 21.5752 17.9712 22.044 16.7024 22.044L14.9351 22.044L12.898 22.044C12.0709 22.044 11.2733 21.7362 10.6606 21.1804C9.22482 19.878 9.20045 17.6294 10.6076 16.2962L13.7031 13.3636Z" fill="#FFAE64" stroke="#111111" stroke-width="1.4"/>
<path id="Rectangle 661" d="M1 19H25L24 24H2L1 19Z" fill="#9A98FF" stroke="#111111" stroke-width="1.4" stroke-linejoin="round"/>
<circle id="Ellipse 229" cx="0.5" cy="0.5" r="0.5" transform="matrix(-1 0 0 1 9 12)" fill="#111111"/>
<circle id="Ellipse 231" cx="0.5" cy="0.5" r="0.5" transform="matrix(-1 0 0 1 6 16)" fill="#111111"/>
<circle id="Ellipse 232" cx="0.5" cy="0.5" r="0.5" transform="matrix(-1 0 0 1 9 15)" fill="#111111"/>
<circle id="Ellipse 230" cx="0.5" cy="0.5" r="0.5" transform="matrix(-1 0 0 1 12 12)" fill="#111111"/>
<path id="Vector 61" d="M9.5 1C9.66667 1.25 10 1.9 10 2.5C10 3.1 9.66667 3.75 9.5 4C9.33333 4.25 9 4.9 9 5.5C9 6.1 9.33333 6.75 9.5 7" stroke="#111111"/>
<path id="Vector 62" d="M13.5 1C13.6667 1.25 14 1.9 14 2.5C14 3.1 13.6667 3.75 13.5 4C13.3333 4.25 13 4.9 13 5.5C13 6.1 13.3333 6.75 13.5 7" stroke="#111111"/>
<path id="Vector 63" d="M17.5 1C17.6667 1.25 18 1.9 18 2.5C18 3.1 17.6667 3.75 17.5 4C17.3333 4.25 17 4.9 17 5.5C17 6.1 17.3333 6.75 17.5 7" stroke="#111111"/>
</g>
</svg>
