<svg width="28" height="27" viewBox="0 0 28 27" fill="none" xmlns="http://www.w3.org/2000/svg">
<g id="Group 1088">
<g id="Union">
<path fill-rule="evenodd" clip-rule="evenodd" d="M3.6 6.2C4.37655 6.2 5.07359 5.85956 5.55 5.31978C6.02641 5.85956 6.72345 6.2 7.5 6.2C8.27655 6.2 8.97359 5.85956 9.45 5.31978C9.92641 5.85956 10.6234 6.2 11.4 6.2C12.8359 6.2 14 5.03594 14 3.6C14 2.16406 12.8359 1 11.4 1C10.6234 1 9.92641 1.34044 9.45 1.88021C8.97359 1.34044 8.27655 1 7.5 1C6.72345 1 6.02641 1.34044 5.55 1.88022C5.07359 1.34044 4.37655 1 3.6 1C2.16406 1 1 2.16406 1 3.6C1 5.03594 2.16406 6.2 3.6 6.2Z" fill="white"/>
<path d="M5.55 5.31978L6.07482 4.85657C5.94194 4.70602 5.7508 4.61978 5.55 4.61978C5.3492 4.61978 5.15806 4.70602 5.02518 4.85657L5.55 5.31978ZM9.45 5.31978L9.97482 4.85657C9.84194 4.70602 9.65081 4.61978 9.45 4.61978C9.2492 4.61978 9.05806 4.70602 8.92518 4.85657L9.45 5.31978ZM9.45 1.88021L8.92518 2.34343C9.05806 2.49398 9.2492 2.58021 9.45 2.58021C9.65081 2.58021 9.84194 2.49398 9.97482 2.34343L9.45 1.88021ZM5.55 1.88022L5.02518 2.34343C5.15806 2.49398 5.3492 2.58022 5.55 2.58022C5.7508 2.58022 5.94194 2.49398 6.07482 2.34343L5.55 1.88022ZM5.02518 4.85657C4.67601 5.25218 4.16738 5.5 3.6 5.5V6.9C4.58572 6.9 5.47116 6.46693 6.07482 5.783L5.02518 4.85657ZM7.5 5.5C6.93262 5.5 6.42399 5.25218 6.07482 4.85657L5.02518 5.783C5.62884 6.46693 6.51428 6.9 7.5 6.9V5.5ZM8.92518 4.85657C8.57601 5.25218 8.06738 5.5 7.5 5.5V6.9C8.48572 6.9 9.37116 6.46693 9.97482 5.783L8.92518 4.85657ZM11.4 5.5C10.8326 5.5 10.324 5.25218 9.97482 4.85657L8.92518 5.783C9.52884 6.46693 10.4143 6.9 11.4 6.9V5.5ZM13.3 3.6C13.3 4.64934 12.4493 5.5 11.4 5.5V6.9C13.2225 6.9 14.7 5.42254 14.7 3.6H13.3ZM11.4 1.7C12.4493 1.7 13.3 2.55066 13.3 3.6H14.7C14.7 1.77746 13.2225 0.3 11.4 0.3V1.7ZM9.97482 2.34343C10.324 1.94782 10.8326 1.7 11.4 1.7V0.3C10.4143 0.3 9.52884 0.733065 8.92518 1.417L9.97482 2.34343ZM7.5 1.7C8.06738 1.7 8.57601 1.94782 8.92518 2.34343L9.97482 1.417C9.37116 0.733065 8.48572 0.3 7.5 0.3V1.7ZM6.07482 2.34343C6.42399 1.94782 6.93262 1.7 7.5 1.7V0.3C6.51428 0.3 5.62884 0.733065 5.02518 1.417L6.07482 2.34343ZM3.6 1.7C4.16738 1.7 4.67601 1.94782 5.02518 2.34343L6.07482 1.417C5.47116 0.733065 4.58572 0.3 3.6 0.3V1.7ZM1.7 3.6C1.7 2.55066 2.55066 1.7 3.6 1.7V0.3C1.77746 0.3 0.3 1.77746 0.3 3.6H1.7ZM3.6 5.5C2.55066 5.5 1.7 4.64934 1.7 3.6H0.3C0.3 5.42254 1.77746 6.9 3.6 6.9V5.5Z" fill="#111111"/>
</g>
<path id="Vector 73" d="M14 17V23" stroke="#111111" stroke-width="1.4"/>
<path id="Vector 72" d="M11 23L10 17L14 14L18 17L17 23H11Z" stroke="#111111" stroke-width="1.4" stroke-linejoin="round"/>
<rect id="Rectangle 663" x="10" y="22" width="8" height="4" fill="white" stroke="#111111" stroke-width="1.4" stroke-linejoin="round"/>
<circle id="Ellipse 233" cx="14" cy="11" r="8" fill="white" stroke="#111111" stroke-width="1.4" stroke-linejoin="round"/>
<ellipse id="Ellipse 234" cx="14" cy="11" rx="3" ry="8" stroke="#111111" stroke-width="1.4" stroke-linejoin="round"/>
<g id="Union_2">
<path fill-rule="evenodd" clip-rule="evenodd" d="M16.6 19.2C17.3766 19.2 18.0736 18.8596 18.55 18.3198C19.0264 18.8596 19.7234 19.2 20.5 19.2C21.2766 19.2 21.9736 18.8596 22.45 18.3198C22.9264 18.8596 23.6234 19.2 24.4 19.2C25.8359 19.2 27 18.0359 27 16.6C27 15.1641 25.8359 14 24.4 14C23.6234 14 22.9264 14.3404 22.45 14.8802C21.9736 14.3404 21.2766 14 20.5 14C19.7234 14 19.0264 14.3404 18.55 14.8802C18.0736 14.3404 17.3766 14 16.6 14C15.1641 14 14 15.1641 14 16.6C14 18.0359 15.1641 19.2 16.6 19.2Z" fill="white"/>
<path d="M18.55 18.3198L19.0748 17.8566C18.9419 17.706 18.7508 17.6198 18.55 17.6198C18.3492 17.6198 18.1581 17.706 18.0252 17.8566L18.55 18.3198ZM22.45 18.3198L22.9748 17.8566C22.8419 17.706 22.6508 17.6198 22.45 17.6198C22.2492 17.6198 22.0581 17.706 21.9252 17.8566L22.45 18.3198ZM22.45 14.8802L21.9252 15.3434C22.0581 15.494 22.2492 15.5802 22.45 15.5802C22.6508 15.5802 22.8419 15.494 22.9748 15.3434L22.45 14.8802ZM18.55 14.8802L18.0252 15.3434C18.1581 15.494 18.3492 15.5802 18.55 15.5802C18.7508 15.5802 18.9419 15.494 19.0748 15.3434L18.55 14.8802ZM18.0252 17.8566C17.676 18.2522 17.1674 18.5 16.6 18.5V19.9C17.5857 19.9 18.4712 19.4669 19.0748 18.783L18.0252 17.8566ZM20.5 18.5C19.9326 18.5 19.424 18.2522 19.0748 17.8566L18.0252 18.783C18.6288 19.4669 19.5143 19.9 20.5 19.9V18.5ZM21.9252 17.8566C21.576 18.2522 21.0674 18.5 20.5 18.5V19.9C21.4857 19.9 22.3712 19.4669 22.9748 18.783L21.9252 17.8566ZM24.4 18.5C23.8326 18.5 23.324 18.2522 22.9748 17.8566L21.9252 18.783C22.5288 19.4669 23.4143 19.9 24.4 19.9V18.5ZM26.3 16.6C26.3 17.6493 25.4493 18.5 24.4 18.5V19.9C26.2225 19.9 27.7 18.4225 27.7 16.6H26.3ZM24.4 14.7C25.4493 14.7 26.3 15.5507 26.3 16.6H27.7C27.7 14.7775 26.2225 13.3 24.4 13.3V14.7ZM22.9748 15.3434C23.324 14.9478 23.8326 14.7 24.4 14.7V13.3C23.4143 13.3 22.5288 13.7331 21.9252 14.417L22.9748 15.3434ZM20.5 14.7C21.0674 14.7 21.576 14.9478 21.9252 15.3434L22.9748 14.417C22.3712 13.7331 21.4857 13.3 20.5 13.3V14.7ZM19.0748 15.3434C19.424 14.9478 19.9326 14.7 20.5 14.7V13.3C19.5143 13.3 18.6288 13.7331 18.0252 14.417L19.0748 15.3434ZM16.6 14.7C17.1674 14.7 17.676 14.9478 18.0252 15.3434L19.0748 14.417C18.4712 13.7331 17.5857 13.3 16.6 13.3V14.7ZM14.7 16.6C14.7 15.5507 15.5507 14.7 16.6 14.7V13.3C14.7775 13.3 13.3 14.7775 13.3 16.6H14.7ZM16.6 18.5C15.5507 18.5 14.7 17.6493 14.7 16.6H13.3C13.3 18.4225 14.7775 19.9 16.6 19.9V18.5Z" fill="#111111"/>
</g>
</g>
</svg>
