<svg width="22" height="24" viewBox="0 0 22 24" fill="none" xmlns="http://www.w3.org/2000/svg">
<g id="Group 1090">
<g id="Union">
<path fill-rule="evenodd" clip-rule="evenodd" d="M9 3C5.68629 3 3 5.68629 3 9V12C3 12.176 3.00757 12.3502 3.02242 12.5223C1.81446 13.2106 1 14.5102 1 16C1 18.2091 2.79086 20 5 20H17C19.2091 20 21 18.2091 21 16C21 14.5102 20.1855 13.2106 18.9776 12.5223C18.9924 12.3502 19 12.176 19 12V9C19 5.68629 16.3137 3 13 3H9Z" fill="white"/>
<path d="M3.02242 12.5223L3.369 13.1304L3.75832 12.9086L3.71983 12.4621L3.02242 12.5223ZM18.9776 12.5223L18.2802 12.4621L18.2417 12.9086L18.631 13.1304L18.9776 12.5223ZM3.7 9C3.7 6.07289 6.07289 3.7 9 3.7V2.3C5.29969 2.3 2.3 5.29969 2.3 9H3.7ZM3.7 12V9H2.3V12H3.7ZM3.71983 12.4621C3.70671 12.31 3.7 12.1559 3.7 12H2.3C2.3 12.1961 2.30844 12.3903 2.325 12.5824L3.71983 12.4621ZM1.7 16C1.7 14.7718 2.37061 13.6994 3.369 13.1304L2.67583 11.9141C1.25831 12.7219 0.3 14.2486 0.3 16H1.7ZM5 19.3C3.17746 19.3 1.7 17.8225 1.7 16H0.3C0.3 18.5957 2.40426 20.7 5 20.7V19.3ZM17 19.3H5V20.7H17V19.3ZM20.3 16C20.3 17.8225 18.8225 19.3 17 19.3V20.7C19.5957 20.7 21.7 18.5957 21.7 16H20.3ZM18.631 13.1304C19.6294 13.6994 20.3 14.7718 20.3 16H21.7C21.7 14.2486 20.7417 12.7219 19.3242 11.9141L18.631 13.1304ZM18.3 12C18.3 12.1559 18.2933 12.31 18.2802 12.4621L19.675 12.5824C19.6916 12.3903 19.7 12.1961 19.7 12H18.3ZM18.3 9V12H19.7V9H18.3ZM13 3.7C15.9271 3.7 18.3 6.07289 18.3 9H19.7C19.7 5.29969 16.7003 2.3 13 2.3V3.7ZM9 3.7H13V2.3H9V3.7Z" fill="#111111"/>
</g>
<path id="Vector 79" d="M9 17H13" stroke="#111111" stroke-linecap="round"/>
<path id="Rectangle 671" d="M1.64961 5.88068C1.1482 5.42509 1.23537 4.61327 1.82208 4.27454L6.43339 1.6122C6.98131 1.29586 7.68158 1.56144 7.88193 2.16155L8.46046 3.89446C8.59032 4.28343 8.46954 4.71226 8.15577 4.97629L4.93019 7.69047C4.54704 8.01288 3.98448 8.00218 3.61387 7.66543L1.64961 5.88068Z" fill="white" stroke="#111111" stroke-width="1.4" stroke-linejoin="round"/>
<path id="Rectangle 672" d="M20.0159 5.88068C20.5173 5.42509 20.4302 4.61327 19.8434 4.27454L15.2321 1.6122C14.6842 1.29586 13.9839 1.56144 13.7836 2.16155L13.2051 3.89446C13.0752 4.28343 13.196 4.71226 13.5098 4.97629L16.7353 7.69047C17.1185 8.01288 17.681 8.00218 18.0517 7.66543L20.0159 5.88068Z" fill="white" stroke="#111111" stroke-width="1.4" stroke-linejoin="round"/>
<rect id="Rectangle 665" x="9" y="12" width="4" height="2" rx="1" fill="#111111"/>
<rect id="Rectangle 666" x="8" y="8" width="1" height="2" rx="0.5" fill="#111111"/>
<rect id="Rectangle 667" x="13" y="8" width="1" height="2" rx="0.5" fill="#111111"/>
<rect id="Rectangle 668" x="4" y="20" width="14" height="3" fill="white" stroke="#111111" stroke-width="1.4" stroke-linejoin="round"/>
<path id="Vector 76" d="M11 13V17" stroke="#111111"/>
</g>
</svg>
